<svg width="200mm" height="200mm" viewBox="0 0 200 200" xmlns:xlink="http://www.w3.org/1999/xlink" xmlns="http://www.w3.org/2000/svg"><defs><linearGradient id="e"><stop offset="0" stop-color="#0c9cc5"/><stop offset="1" stop-color="#7feaf6"/></linearGradient><linearGradient id="f"><stop offset="0" stop-opacity="0"/><stop offset="1" stop-opacity=".371"/></linearGradient><linearGradient id="a"><stop offset="0" stop-color="#004599"/><stop offset="1" stop-color="#005377"/></linearGradient><linearGradient id="b"><stop offset="0" stop-color="#36c2ff"/><stop offset="1" stop-color="#00182e"/></linearGradient><linearGradient id="d"><stop offset="0" stop-color="#0c9cc5"/><stop offset="1" stop-color="#7febf6"/></linearGradient><linearGradient id="c"><stop offset="0" stop-color="#68cddf"/><stop offset="1" stop-color="#004280"/></linearGradient><linearGradient xlink:href="#a" id="g" gradientUnits="userSpaceOnUse" gradientTransform="scale(-1 1) rotate(-58.2 -33.076 305.12)" x1="28.86" y1="118.094" x2="75.317" y2="118.094"/><linearGradient xlink:href="#a" id="h" gradientUnits="userSpaceOnUse" gradientTransform="scale(-1 1) rotate(-58.2 -21.503 297.56)" x1="28.86" y1="118.094" x2="75.317" y2="118.094"/><linearGradient xlink:href="#a" id="i" gradientUnits="userSpaceOnUse" gradientTransform="scale(-1 1) rotate(-58.2 -9.012 286.628)" x1="28.86" y1="118.094" x2="75.317" y2="118.094"/><linearGradient xlink:href="#a" id="j" gradientUnits="userSpaceOnUse" gradientTransform="rotate(-58.2 91.212 105.179)" x1="28.86" y1="118.094" x2="75.317" y2="118.094"/><linearGradient xlink:href="#a" id="k" gradientUnits="userSpaceOnUse" gradientTransform="rotate(-58.2 78.952 116.668)" x1="28.86" y1="118.094" x2="75.317" y2="118.094"/><linearGradient xlink:href="#a" id="l" gradientUnits="userSpaceOnUse" gradientTransform="rotate(-58.2 67.379 124.23)" x1="28.86" y1="118.094" x2="75.317" y2="118.094"/><linearGradient xlink:href="#b" id="m" gradientUnits="userSpaceOnUse" gradientTransform="matrix(-1 0 0 1 202.317 -4.568)" x1="28.86" y1="118.094" x2="75.317" y2="118.094"/><linearGradient xlink:href="#b" id="n" gradientUnits="userSpaceOnUse" gradientTransform="translate(-1.2 -4.788)" x1="28.86" y1="118.094" x2="75.317" y2="118.094"/><linearGradient xlink:href="#c" id="o" gradientUnits="userSpaceOnUse" gradientTransform="matrix(0 1.21893 -1.01824 0 146.178 -10.09)" x1="32.029" y1="45.292" x2="121.403" y2="45.292"/><linearGradient xlink:href="#d" id="p" gradientUnits="userSpaceOnUse" gradientTransform="matrix(-1 0 0 1 200.06 -.124)" x1="57.008" y1="45.193" x2="100" y2="43.884"/><linearGradient xlink:href="#e" id="q" gradientUnits="userSpaceOnUse" x1="57.008" y1="45.193" x2="100" y2="43.884"/><linearGradient xlink:href="#f" id="r" gradientUnits="userSpaceOnUse" x1="100.06" y1="43.761" x2="149.986" y2="43.761"/><linearGradient xlink:href="#f" id="s" gradientUnits="userSpaceOnUse" gradientTransform="matrix(-1 0 0 1 200.06 .124)" x1="100.06" y1="43.761" x2="149.986" y2="43.761"/></defs><g clip-rule="evenodd"><path d="M117.473 111.518s12.682-12.84 25.364 0c0 0 9.965 17.12 0 25.68 0 0-16.306 11.984-25.364 0 0 0-10.87-9.417 0-25.68"/><path d="M132.155 116.281c0 5-3.187 9.053-7.118 9.053-3.93 0-7.117-4.053-7.117-9.053 0-5 3.187-9.053 7.117-9.053s7.118 4.054 7.118 9.053" fill="#fff"/><path d="M60.87 108.012s21.754-8.906 27.692 10.972c0 0 6.22 23.17-17.865 24.478 0 0-30.712-5.47-9.827-35.45"/><path d="M71.796 116.61c0 5.155-3.287 9.337-7.341 9.337-4.053 0-7.34-4.182-7.34-9.338 0-5.157 3.287-9.337 7.34-9.337 4.054 0 7.34 4.18 7.34 9.337" fill="#fff"/></g><path style="font-variation-settings:'wght' 700" d="M100.045 1.874l.203.212a1.753 1.753 0 0 0-.292-.027c-1.226.002-3.743 1.553-7.11 4.178C73.81 17.547 23.165 48.52 23.65 57.593c4.73 8.309 9.719 9.738 9.719 9.738-2.583 5.372-2.408 32.707-.811 51.554-2.804-2.83-6.01-6.48-9.643-11.22a7.5 7.5 0 0 0-4.97-2.872 7.5 7.5 0 0 0-5.546 1.482 7.5 7.5 0 0 0-1.391 10.516c9.62 12.553 17.303 19.114 23.398 22.803.827.5 1.634.962 2.408 1.384 1.043 2.079 2.603 4.008 4.6 5.782-.156 1.019-.201 1.287-.525 1.946-.739 1.506-3.799 5.656-16.767 11.558a7.5 7.5 0 0 0-3.721 9.935 7.5 7.5 0 0 0 9.935 3.719c14.555-6.625 21.092-12.636 24.022-18.606a18.3 18.3 0 0 0 .434-.952c1.133.433 2.304.847 3.508 1.241-.829 1.715-1.675 3.474-2.878 5.431-2.87 4.668-7.598 10.482-18.291 16.445a7.5 7.5 0 0 0-2.898 10.205 7.5 7.5 0 0 0 10.205 2.898c12.789-7.132 19.806-15.254 23.764-21.693 1.98-3.22 3.236-6.014 4.046-7.665.24-.49.485-.803.64-.97-.231.174-.727.493-1.627.914a7.5 7.5 0 0 0 2.484-1.878c2.463.408 4.987.752 7.555 1.033a62.9 62.9 0 0 1-.3 1.563c-1.08 5.238-3.205 12.751-9.956 23.867a7.5 7.5 0 0 0 2.516 10.305 7.5 7.5 0 0 0 10.305-2.517c7.62-12.546 10.504-22.202 11.828-28.622.288-1.398.515-2.651.696-3.694 2.596.031 5.201 0 7.8-.094.205 1.203.484 2.848.88 4.766 1.324 6.42 4.207 16.08 11.827 28.625a7.5 7.5 0 0 0 10.305 2.517 7.5 7.5 0 0 0 2.517-10.304c-6.752-11.116-8.876-18.629-9.956-23.867a81.512 81.512 0 0 1-.553-3.02 130.15 130.15 0 0 0 6.639-1.084 7.5 7.5 0 0 0 3.102 2.697c-.894-.418-1.39-.736-1.623-.91.156.167.398.478.635.963.81 1.65 2.067 4.448 4.046 7.668 3.959 6.44 10.978 14.558 23.768 21.69a7.5 7.5 0 0 0 10.201-2.898 7.5 7.5 0 0 0-2.897-10.202c-10.694-5.963-15.422-11.777-18.291-16.445-1.435-2.334-2.362-4.386-3.358-6.417a12.62 12.62 0 0 1-.144-.305 73.439 73.439 0 0 0 3.586-1.412c.254.767.575 1.584.982 2.414 2.93 5.97 9.467 11.98 24.022 18.606a7.5 7.5 0 0 0 9.933-3.722 7.5 7.5 0 0 0-3.718-9.932c-12.969-5.902-16.032-10.055-16.771-11.56-.37-.754-.376-.994-.601-2.433-.066-.42-.125-.973-.318-1.693.785-.72 1.52-1.465 2.201-2.235a60.35 60.35 0 0 0 4.991-2.711c6.095-3.69 13.776-10.253 23.398-22.806a7.5 7.5 0 0 0-1.392-10.516 7.5 7.5 0 0 0-5.543-1.482 7.5 7.5 0 0 0-4.972 2.874c-3.653 4.766-6.873 8.43-9.686 11.266 1.276-17.831.955-43.345-1.63-48.689 0 0 5.852-4.856 10.582-13.165.508-9.533-55.415-43.234-71.83-52.915-1.709-1.273-3.075-2.092-4.008-2.347l-.468-.271zm27.282 158.674a.78.78 0 0 0-.169-.15v-.001h-.002v.001h-.001v.001a.826.826 0 0 0 .172.15zm-54.438-.295a.857.857 0 0 0 .165-.144h.001v-.003h-.002a.758.758 0 0 0-.164.147z" overflow="visible" fill="#00a4df"/></svg>