<svg width="4249.999" height="1350" viewBox="0 0 1124.479 357.18748" xmlns:xlink="http://www.w3.org/1999/xlink" xmlns="http://www.w3.org/2000/svg"><defs><linearGradient id="e"><stop offset="0" stop-color="#0c9cc5"/><stop offset="1" stop-color="#7feaf6"/></linearGradient><linearGradient id="f"><stop offset="0" stop-opacity="0"/><stop offset="1" stop-opacity=".371"/></linearGradient><linearGradient id="a"><stop offset="0" stop-color="#004599"/><stop offset="1" stop-color="#005377"/></linearGradient><linearGradient id="b"><stop offset="0" stop-color="#36c2ff"/><stop offset="1" stop-color="#00182e"/></linearGradient><linearGradient id="d"><stop offset="0" stop-color="#0c9cc5"/><stop offset="1" stop-color="#7febf6"/></linearGradient><linearGradient id="c"><stop offset="0" stop-color="#68cddf"/><stop offset="1" stop-color="#004280"/></linearGradient><linearGradient xlink:href="#a" id="g" gradientUnits="userSpaceOnUse" gradientTransform="scale(-1 1) rotate(-58.2 -33.076 305.12)" x1="28.86" y1="118.094" x2="75.317" y2="118.094"/><linearGradient xlink:href="#a" id="h" gradientUnits="userSpaceOnUse" gradientTransform="scale(-1 1) rotate(-58.2 -21.503 297.56)" x1="28.86" y1="118.094" x2="75.317" y2="118.094"/><linearGradient xlink:href="#a" id="i" gradientUnits="userSpaceOnUse" gradientTransform="scale(-1 1) rotate(-58.2 -9.012 286.628)" x1="28.86" y1="118.094" x2="75.317" y2="118.094"/><linearGradient xlink:href="#a" id="j" gradientUnits="userSpaceOnUse" gradientTransform="rotate(-58.2 91.212 105.179)" x1="28.86" y1="118.094" x2="75.317" y2="118.094"/><linearGradient xlink:href="#a" id="k" gradientUnits="userSpaceOnUse" gradientTransform="rotate(-58.2 78.952 116.668)" x1="28.86" y1="118.094" x2="75.317" y2="118.094"/><linearGradient xlink:href="#a" id="l" gradientUnits="userSpaceOnUse" gradientTransform="rotate(-58.2 67.379 124.23)" x1="28.86" y1="118.094" x2="75.317" y2="118.094"/><linearGradient xlink:href="#b" id="m" gradientUnits="userSpaceOnUse" gradientTransform="matrix(-1 0 0 1 202.317 -4.568)" x1="28.86" y1="118.094" x2="75.317" y2="118.094"/><linearGradient xlink:href="#b" id="n" gradientUnits="userSpaceOnUse" gradientTransform="translate(-1.2 -4.788)" x1="28.86" y1="118.094" x2="75.317" y2="118.094"/><linearGradient xlink:href="#c" id="o" gradientUnits="userSpaceOnUse" gradientTransform="matrix(0 1.21893 -1.01824 0 146.178 -10.09)" x1="32.029" y1="45.292" x2="121.403" y2="45.292"/><linearGradient xlink:href="#d" id="p" gradientUnits="userSpaceOnUse" gradientTransform="matrix(-1 0 0 1 200.06 -.124)" x1="57.008" y1="45.193" x2="100" y2="43.884"/><linearGradient xlink:href="#e" id="q" gradientUnits="userSpaceOnUse" x1="57.008" y1="45.193" x2="100" y2="43.884"/><linearGradient xlink:href="#f" id="r" gradientUnits="userSpaceOnUse" x1="100.06" y1="43.761" x2="149.986" y2="43.761"/><linearGradient xlink:href="#f" id="s" gradientUnits="userSpaceOnUse" gradientTransform="matrix(-1 0 0 1 200.06 .124)" x1="100.06" y1="43.761" x2="149.986" y2="43.761"/></defs><rect width="1124.479" height="357.188" rx="35" ry="37.8" fill="#f8fcfc"/><g stroke-width="10" stroke-linecap="round" fill="none"><path style="font-variation-settings:'wght' 700" d="M133.88 124.424c2.533 1.187-3.016 6.385 15.332 14.736" transform="matrix(1.5001 0 0 1.5001 49.83 -2.448)" stroke="url(#g)"/><path style="font-variation-settings:'wght' 700" d="M121.979 130.683c2.533 1.187 2.542 11.038 18.196 19.767" transform="matrix(1.5001 0 0 1.5001 49.83 -2.448)" stroke="url(#h)"/><path style="font-variation-settings:'wght' 700" d="M106.78 130.683c2.64 1.08-.265 8.198 9.315 23.97" transform="matrix(1.5001 0 0 1.5001 49.83 -2.448)" stroke="url(#i)"/><path style="font-variation-settings:'wght' 700" d="M94.844 130.03c-2.639 1.08.266 8.197-9.315 23.97" transform="matrix(1.5001 0 0 1.5001 49.83 -2.448)" stroke="url(#j)"/><path style="font-variation-settings:'wght' 700" d="M79.28 130.489c-2.533 1.187-2.542 11.038-18.196 19.767" transform="matrix(1.5001 0 0 1.5001 49.83 -2.448)" stroke="url(#k)"/><path style="font-variation-settings:'wght' 700" d="M67.379 124.23c-2.533 1.187 3.016 6.385-15.332 14.736" transform="matrix(1.5001 0 0 1.5001 49.83 -2.448)" stroke="url(#l)"/><path style="font-variation-settings:'wght' 700" d="M134.938 119.661c2.344-1.527 8.685-1.013 20.976-17.05" transform="matrix(1.5001 0 0 1.5001 49.83 -2.448)" stroke="url(#m)"/><path style="font-variation-settings:'wght' 700" d="M66.18 119.442c-2.344-1.528-8.686-1.014-20.977-17.05" transform="matrix(1.5001 0 0 1.5001 49.83 -2.448)" stroke="url(#n)"/></g><path d="M100 28.95c-4.98.008-41.904 38.347-44.388 43.513-2.485 5.166-1.142 40.806 1.353 45.965 2.379 20.881 76.324 23.48 86.249-.123 2.484-5.166 3.154-38.523.66-43.682-2.495-5.159-38.894-45.68-43.874-45.672z" transform="matrix(1.5001 0 0 1.5001 50.624 -2.448)" clip-rule="evenodd" fill="url(#o)" fill-rule="evenodd"/><path style="font-variation-settings:'wght' 700" d="M143.873 74.623L100.06 28.827s51.264 29.573 50.867 37.02c-3.153 5.54-7.054 8.776-7.054 8.776z" fill="url(#p)" transform="matrix(1.5001 0 0 1.5001 50.624 -2.448)"/><path style="font-variation-settings:'wght' 700" d="M55.612 72.463L100 28.95S48.736 58.524 49.133 65.97c3.153 5.539 6.479 6.492 6.479 6.492z" fill="url(#q)" transform="matrix(1.5001 0 0 1.5001 50.624 -2.448)"/><g><path style="font-variation-settings:'wght' 700" d="M100.06 28.827l43.813 45.796c2.868-2.014 5.08-6.111 7.054-8.776l-7.13 5.014z" fill="url(#r)" transform="matrix(1.5001 0 0 1.5001 50.624 -2.448)"/><path style="font-variation-settings:'wght' 700" d="M100 28.95L55.612 72.464c-3.43-1.731-4.766-3.696-6.48-6.492l6.33 3.364z" fill="url(#s)" transform="matrix(1.5001 0 0 1.5001 50.624 -2.448)"/></g><g clip-rule="evenodd"><path d="M218.15 150.44s12.682-12.84 25.365 0c0 0 9.965 17.12 0 25.68 0 0-16.306 11.985-25.365 0 0 0-10.87-9.416 0-25.68"/><path d="M232.833 155.203c0 5-3.188 9.053-7.118 9.053s-7.118-4.053-7.118-9.053c0-5 3.187-9.053 7.118-9.053 3.93 0 7.118 4.054 7.118 9.053" fill="#fff"/><path d="M161.547 146.934s21.755-8.906 27.692 10.973c0 0 6.22 23.17-17.865 24.477 0 0-30.711-5.469-9.827-35.45"/><path d="M172.473 155.531c0 5.156-3.286 9.338-7.34 9.338s-7.341-4.182-7.341-9.338c0-5.156 3.287-9.337 7.34-9.337 4.055 0 7.341 4.18 7.341 9.337" fill="#fff"/></g><path d="M83.09 313.34q-4.504 0-8.398-1.55-3.838-1.608-6.674-4.527-2.837-2.919-4.45-6.85-1.557-3.932-1.557-8.638 0-4.706 1.557-8.638 1.613-3.931 4.45-6.85 2.892-2.92 6.73-4.468 3.838-1.608 8.398-1.608 5.062 0 9.122 1.906 4.116 1.846 6.897 5.48l-5.785 5.719q-2.002-2.442-4.45-3.634-2.447-1.25-5.339-1.25-2.725 0-5.005.952-2.28.953-3.95 2.74-1.668 1.788-2.614 4.23-.89 2.442-.89 5.42 0 2.98.89 5.422.946 2.442 2.615 4.23 1.668 1.786 3.949 2.74 2.28.953 5.005.953 2.892 0 5.34-1.192 2.447-1.25 4.45-3.753l5.784 5.719q-2.781 3.634-6.897 5.54-4.06 1.906-9.177 1.906zm29.87-7.804v-27.522h7.175v27.522zm-9.622-10.127v-7.268h26.474v7.268zm43.158 10.127v-27.522h7.175v27.522zm-9.622-10.127v-7.268h26.475v7.268zm28.032 23.172l18.355-56.115h7.73l-18.354 56.115zm28.255-5.957v-41.699h16.63q8.12 0 12.625 4.051 4.506 3.991 4.506 11.08 0 4.647-2.058 8.042-2.058 3.336-5.84 5.123-3.782 1.787-9.01 1.787h-11.847l4.004-4.23v15.846zm24.75 0l-9.733-15.13h9.622l9.845 15.13zm-15.74-14.773l-4.004-4.527h11.346q4.171 0 6.23-1.907 2.057-1.965 2.057-5.36 0-3.456-2.058-5.362-2.058-1.906-6.23-1.906h-11.345l4.004-4.587zm43.884 15.25q-3.727 0-6.675-1.549-2.892-1.549-4.505-4.706-1.613-3.217-1.613-8.161v-18.11h8.677v16.74q0 3.991 1.557 5.897 1.613 1.847 4.505 1.847 2.003 0 3.56-.894 1.557-.953 2.447-2.859.89-1.966.89-4.885v-15.845h8.677v32.048h-8.232v-8.816l1.502 2.562q-1.502 3.335-4.45 5.063-2.892 1.668-6.34 1.668zm35.651 0q-3.837 0-7.397-.953-3.504-1.013-5.562-2.502l2.892-6.672q2.058 1.37 4.84 2.264 2.836.834 5.561.834 3.004 0 4.227-.775 1.28-.774 1.28-2.144 0-1.132-1.002-1.668-.945-.596-2.558-.894-1.613-.298-3.56-.595-1.89-.298-3.838-.775-1.946-.536-3.56-1.549-1.612-1.012-2.613-2.74-.946-1.727-.946-4.468 0-3.038 1.613-5.36 1.669-2.324 4.783-3.635 3.115-1.37 7.453-1.37 3.06 0 6.23.715 3.17.715 5.283 2.085l-2.892 6.612q-2.169-1.37-4.394-1.846-2.169-.537-4.227-.537-2.892 0-4.227.834-1.335.834-1.335 2.145 0 1.191.946 1.787 1.001.596 2.614.953 1.613.358 3.504.655 1.947.239 3.893.775 1.947.536 3.504 1.549 1.613.953 2.614 2.68 1.002 1.668 1.002 4.408 0 2.979-1.669 5.302-1.669 2.264-4.839 3.574-3.114 1.31-7.62 1.31zm31.703 0q-5.284 0-8.231-2.86-2.948-2.918-2.948-8.637v-28.117h8.676v27.998q0 2.025 1.002 3.157 1 1.072 2.725 1.072 2.058 0 3.504-1.191l2.336 6.553q-1.335 1.012-3.226 1.548-1.835.477-3.838.477zm-15.796-25.377v-7.148h20.746v7.148zm61.181 25.377q-3.949 0-6.785-1.787-2.837-1.787-4.338-5.421-1.502-3.693-1.502-9.293 0-5.66 1.557-9.293 1.613-3.634 4.45-5.42 2.836-1.788 6.618-1.788 4.227 0 7.565 2.026 3.392 2.025 5.339 5.718 2.002 3.694 2.002 8.757 0 5.004-2.002 8.697-1.947 3.694-5.34 5.779-3.337 2.025-7.564 2.025zm-17.686-.477v-44.2h8.676v18.645l-.556 9.471.167 9.532v6.552zm16.185-7.148q2.169 0 3.837-1.072 1.725-1.073 2.726-3.038 1.057-2.026 1.057-4.766 0-2.8-1.057-4.766-1.001-1.965-2.726-3.038-1.668-1.072-3.837-1.072-2.17 0-3.894 1.072-1.724 1.073-2.725 3.038-1.001 1.966-1.001 4.766 0 2.74 1.001 4.766 1.001 1.965 2.725 3.038 1.725 1.072 3.894 1.072zm22.192 7.148v-32.048h8.676v32.048zm4.338-36.516q-2.392 0-3.893-1.49-1.502-1.488-1.502-3.693 0-2.204 1.502-3.693 1.501-1.49 3.893-1.49t3.893 1.43q1.502 1.37 1.502 3.575 0 2.323-1.502 3.872-1.446 1.489-3.893 1.489zm25.251 36.993q-4.227 0-7.62-2.025-3.393-2.085-5.395-5.779-1.946-3.693-1.946-8.697 0-5.063 1.946-8.757 2.002-3.693 5.395-5.718 3.393-2.026 7.62-2.026 3.782 0 6.619 1.787 2.836 1.787 4.394 5.421 1.557 3.634 1.557 9.293 0 5.6-1.502 9.293-1.501 3.634-4.338 5.42-2.781 1.788-6.73 1.788zm1.502-7.625q2.113 0 3.837-1.072 1.725-1.073 2.726-3.038 1.057-2.026 1.057-4.766 0-2.8-1.057-4.766-1.001-1.965-2.726-3.038-1.724-1.072-3.837-1.072-2.17 0-3.894 1.072-1.724 1.073-2.78 3.038-1.002 1.966-1.002 4.766 0 2.74 1.001 4.766 1.057 1.965 2.781 3.038 1.725 1.072 3.894 1.072zm7.842 7.148v-6.552l.167-9.532-.556-9.471v-18.646h8.676v44.201zm16.296 0v-32.048h8.677v32.048zm4.339-36.516q-2.392 0-3.894-1.49-1.501-1.488-1.501-3.693 0-2.204 1.501-3.693 1.502-1.49 3.894-1.49 2.391 0 3.893 1.43 1.502 1.37 1.502 3.575 0 2.323-1.502 3.872-1.446 1.489-3.893 1.489zm12.403 36.516v-32.048h8.287v9.054l-1.168-2.62q1.335-3.396 4.283-5.124 2.947-1.787 7.175-1.787v8.578q-.557-.06-1.002-.06-.445-.059-.945-.059-3.56 0-5.785 2.204-2.169 2.145-2.169 6.732v15.13zm38.343.477q-5.117 0-9.01-2.145-3.838-2.144-5.952-5.837-2.114-3.753-2.114-8.519 0-4.825 2.058-8.518 2.114-3.753 5.73-5.838 3.614-2.145 8.175-2.145 4.394 0 7.898 2.026 3.56 1.965 5.618 5.718 2.057 3.694 2.057 8.876 0 .536-.055 1.251-.056.655-.111 1.251h-24.306v-5.42h19.745l-3.337 1.608q0-2.502-.946-4.349-.945-1.847-2.614-2.86-1.669-1.072-3.893-1.072-2.225 0-3.95 1.073-1.668 1.012-2.613 2.919-.946 1.846-.946 4.408v1.43q0 2.62 1.057 4.646 1.112 1.966 3.059 3.038 2.002 1.013 4.672 1.013 2.392 0 4.171-.775 1.836-.774 3.338-2.323l4.616 5.361q-2.058 2.502-5.173 3.872-3.114 1.31-7.174 1.31zm34.706 0q-4.839 0-8.621-2.085-3.782-2.145-5.951-5.897-2.114-3.753-2.114-8.519 0-4.825 2.114-8.518 2.169-3.753 5.95-5.838 3.783-2.145 8.622-2.145 4.727 0 8.231 2.145 3.504 2.085 5.173 6.016l-6.73 3.872q-1.168-2.263-2.948-3.336-1.724-1.072-3.782-1.072-2.225 0-4.004 1.072-1.78 1.073-2.837 3.038-1.001 1.966-1.001 4.766t1.001 4.766q1.057 1.965 2.837 3.038 1.78 1.072 4.004 1.072 2.058 0 3.782-1.013 1.78-1.072 2.948-3.395l6.73 3.931q-1.669 3.872-5.173 6.017-3.504 2.085-8.231 2.085zm31.101 0q-5.283 0-8.231-2.86-2.948-2.918-2.948-8.637v-28.117h8.677v27.998q0 2.025 1 3.157 1.002 1.072 2.726 1.072 2.058 0 3.504-1.191l2.336 6.553q-1.335 1.012-3.226 1.548-1.835.477-3.838.477zm-15.795-25.377v-7.148h20.746v7.148zm27.753 24.9v-32.048h8.677v32.048zm4.339-36.516q-2.392 0-3.894-1.49-1.501-1.488-1.501-3.693 0-2.204 1.501-3.693 1.502-1.49 3.894-1.49 2.391 0 3.893 1.43 1.502 1.37 1.502 3.575 0 2.323-1.502 3.872-1.446 1.489-3.893 1.489zm26.641 36.993q-4.783 0-8.51-2.145-3.67-2.144-5.84-5.837-2.113-3.753-2.113-8.519 0-4.825 2.114-8.518 2.169-3.753 5.84-5.838 3.726-2.145 8.51-2.145 4.727 0 8.453 2.145 3.727 2.085 5.84 5.778 2.114 3.693 2.114 8.578 0 4.766-2.114 8.519-2.113 3.693-5.84 5.837-3.726 2.145-8.454 2.145zm0-7.625q2.17 0 3.894-1.072 1.724-1.073 2.725-3.038 1.001-2.026 1.001-4.766 0-2.8-1.001-4.766-1.001-1.965-2.725-3.038-1.725-1.072-3.894-1.072t-3.893 1.072q-1.724 1.073-2.781 3.038-1.001 1.966-1.001 4.766 0 2.74 1.001 4.766 1.057 1.965 2.781 3.038 1.724 1.072 3.893 1.072zm22.192 7.148v-32.048h8.288v8.876l-1.558-2.681q1.613-3.217 4.617-4.944 3.003-1.728 6.84-1.728 3.56 0 6.341 1.549 2.837 1.49 4.45 4.646 1.613 3.098 1.613 7.983v18.347h-8.677v-16.917q0-3.873-1.613-5.72-1.557-1.846-4.45-1.846-2.057 0-3.726.953-1.613.894-2.558 2.8-.89 1.906-.89 4.885v15.845zm56.787 0v-6.254l-.556-1.37v-11.2q0-2.978-1.724-4.646-1.669-1.668-5.173-1.668-2.391 0-4.727.834-2.28.774-3.894 2.144l-3.114-6.493q2.447-1.846 5.895-2.86 3.449-1.012 7.008-1.012 6.842 0 10.624 3.455 3.782 3.455 3.782 10.782v18.288zm-9.121.477q-3.504 0-6.007-1.251-2.503-1.31-3.838-3.515-1.335-2.204-1.335-4.944 0-2.86 1.28-5.004 1.335-2.144 4.171-3.336 2.837-1.25 7.397-1.25h7.954v5.42h-7.008q-3.06 0-4.227 1.072-1.112 1.073-1.112 2.681 0 1.787 1.279 2.86 1.335 1.012 3.615 1.012 2.17 0 3.893-1.072 1.725-1.132 2.503-3.277l1.335 4.29q-.945 3.097-3.448 4.706-2.503 1.608-6.452 1.608zm25.084-.477v-44.2h8.677v44.2zm32.482 0v-32.048h8.676v32.048zm4.338-36.516q-2.392 0-3.893-1.49-1.502-1.488-1.502-3.693 0-2.204 1.502-3.693 1.501-1.49 3.893-1.49t3.893 1.43q1.502 1.37 1.502 3.575 0 2.323-1.502 3.872-1.446 1.489-3.893 1.489zm12.403 36.516v-32.048h8.287v8.876l-1.557-2.681q1.613-3.217 4.616-4.944 3.004-1.728 6.841-1.728 3.56 0 6.341 1.549 2.837 1.49 4.45 4.646 1.612 3.098 1.612 7.983v18.347h-8.676v-16.917q0-3.873-1.613-5.72-1.557-1.846-4.45-1.846-2.057 0-3.726.953-1.613.894-2.559 2.8-.89 1.906-.89 4.885v15.845zm50.669.477q-5.284 0-8.232-2.86-2.947-2.918-2.947-8.637v-28.117h8.676v27.998q0 2.025 1.001 3.157 1.001 1.072 2.726 1.072 2.057 0 3.504-1.191l2.336 6.553q-1.335 1.012-3.226 1.548-1.836.477-3.838.477zm-15.796-25.377v-7.148h20.746v7.148zm41.67 25.377q-5.118 0-9.01-2.145-3.839-2.144-5.952-5.837-2.114-3.753-2.114-8.519 0-4.825 2.058-8.518 2.114-3.753 5.729-5.838 3.615-2.145 8.176-2.145 4.394 0 7.898 2.026 3.56 1.965 5.617 5.718 2.058 3.694 2.058 8.876 0 .536-.055 1.251-.056.655-.112 1.251H809.24v-5.42h19.745l-3.337 1.608q0-2.502-.946-4.349-.946-1.847-2.614-2.86-1.669-1.072-3.893-1.072-2.225 0-3.95 1.073-1.668 1.012-2.613 2.919-.946 1.846-.946 4.408v1.43q0 2.62 1.057 4.646 1.112 1.966 3.059 3.038 2.002 1.013 4.672 1.013 2.391 0 4.171-.775 1.836-.774 3.337-2.323l4.617 5.361q-2.058 2.502-5.173 3.872-3.114 1.31-7.175 1.31zm20.245-.477v-32.048h8.287v9.054l-1.168-2.62q1.335-3.396 4.283-5.124 2.947-1.787 7.174-1.787v8.578q-.556-.06-1-.06-.446-.059-.946-.059-3.56 0-5.785 2.204-2.169 2.145-2.169 6.732v15.13zm37.73.477q-4.783 0-8.509-2.145-3.67-2.144-5.84-5.837-2.114-3.753-2.114-8.519 0-4.825 2.114-8.518 2.17-3.753 5.84-5.838 3.726-2.145 8.51-2.145 4.727 0 8.454 2.145 3.726 2.085 5.84 5.778 2.113 3.693 2.113 8.578 0 4.766-2.113 8.519-2.114 3.693-5.84 5.837-3.727 2.145-8.454 2.145zm0-7.625q2.17 0 3.894-1.072 1.724-1.073 2.725-3.038 1.002-2.026 1.002-4.766 0-2.8-1.002-4.766-1-1.965-2.725-3.038-1.724-1.072-3.893-1.072-2.17 0-3.894 1.072-1.724 1.073-2.78 3.038-1.002 1.966-1.002 4.766 0 2.74 1.001 4.766 1.057 1.965 2.781 3.038 1.725 1.072 3.894 1.072zm39.88 7.625q-3.783 0-6.62-1.787-2.836-1.787-4.449-5.421-1.557-3.693-1.557-9.293 0-5.66 1.502-9.293 1.501-3.634 4.338-5.42 2.837-1.788 6.786-1.788 4.227 0 7.564 2.085 3.392 2.026 5.34 5.719 2.001 3.693 2.001 8.697 0 5.064-2.002 8.757-1.947 3.693-5.34 5.719-3.336 2.025-7.563 2.025zm-17.687 11.08v-43.605h8.287v6.552l-.167 9.532.556 9.471v18.05zm16.185-18.705q2.169 0 3.838-1.072 1.724-1.073 2.725-3.038 1.057-2.026 1.057-4.766 0-2.8-1.057-4.766-1.001-1.965-2.725-3.038-1.669-1.072-3.838-1.072-2.17 0-3.893 1.072-1.725 1.073-2.726 3.038-1.001 1.966-1.001 4.766 0 2.74 1.001 4.766 1.001 1.965 2.726 3.038 1.724 1.072 3.893 1.072zm50.168 7.625q-5.284 0-8.231-2.86-2.948-2.918-2.948-8.637v-28.117h8.676v27.998q0 2.025 1.002 3.157 1 1.072 2.725 1.072 2.058 0 3.504-1.191l2.336 6.553q-1.335 1.012-3.226 1.548-1.835.477-3.838.477zm-15.796-25.377v-7.148h20.746v7.148zm41.058 25.377q-4.783 0-8.51-2.145-3.67-2.144-5.84-5.837-2.113-3.753-2.113-8.519 0-4.825 2.113-8.518 2.17-3.753 5.84-5.838 3.727-2.145 8.51-2.145 4.727 0 8.454 2.145 3.726 2.085 5.84 5.778 2.114 3.693 2.114 8.578 0 4.766-2.114 8.519-2.114 3.693-5.84 5.837-3.727 2.145-8.454 2.145zm0-7.625q2.169 0 3.893-1.072 1.724-1.073 2.726-3.038 1-2.026 1-4.766 0-2.8-1-4.766-1.002-1.965-2.726-3.038-1.724-1.072-3.893-1.072-2.17 0-3.893 1.072-1.725 1.073-2.781 3.038-1.002 1.966-1.002 4.766 0 2.74 1.002 4.766 1.056 1.965 2.78 3.038 1.725 1.072 3.894 1.072zm36.43 7.625q-4.783 0-8.51-2.145-3.67-2.144-5.84-5.837-2.113-3.753-2.113-8.519 0-4.825 2.114-8.518 2.169-3.753 5.84-5.838 3.726-2.145 8.51-2.145 4.727 0 8.453 2.145 3.727 2.085 5.84 5.778 2.114 3.693 2.114 8.578 0 4.766-2.114 8.519-2.113 3.693-5.84 5.837-3.726 2.145-8.454 2.145zm0-7.625q2.17 0 3.894-1.072 1.724-1.073 2.725-3.038 1.001-2.026 1.001-4.766 0-2.8-1.001-4.766-1.001-1.965-2.725-3.038-1.725-1.072-3.894-1.072t-3.893 1.072q-1.724 1.073-2.78 3.038-1.002 1.966-1.002 4.766 0 2.74 1.001 4.766 1.057 1.965 2.781 3.038 1.724 1.072 3.893 1.072zm22.192 7.148v-44.2h8.677v44.2z" style="-inkscape-font-specification:'Montserrat, @wght=700';font-variation-settings:'wght' 700" font-size="57.561" font-family="Montserrat" letter-spacing="0" fill="#002d59"/><g style="-inkscape-font-specification:'Montserrat, @wght=700';font-variation-settings:'wght' 700" font-size="229.119" font-family="Montserrat" letter-spacing="0" fill="#2d3232" stroke-width="0" stroke-opacity=".055"><path d="M402.648 222.159q-19.497 0-34.735-8.199-15.239-8.433-23.979-23.191-8.516-14.758-8.516-33.498 0-18.975 8.516-33.498 8.74-14.758 23.979-22.957 15.238-8.433 34.735-8.433 19.048 0 33.166 8.433 14.118 8.199 20.841 23.66l-27.116 15.226q-4.706-8.902-11.877-13.118-6.947-4.217-15.238-4.217-8.964 0-16.135 4.217-7.172 4.216-11.43 11.946-4.033 7.73-4.033 18.74 0 11.01 4.034 18.741 4.257 7.73 11.429 11.947 7.17 4.216 16.135 4.216 8.291 0 15.238-3.982 7.171-4.216 11.877-13.352l27.116 15.46q-6.723 15.227-20.84 23.66-14.119 8.199-33.167 8.199z" fill="#004280"/><path d="M476.824 220.285V94.257h33.39v35.606l-4.706-10.307q5.379-13.352 17.256-20.146 11.877-7.027 28.908-7.027v33.732q-2.24-.234-4.033-.234-1.793-.234-3.81-.234-14.342 0-23.306 8.667-8.74 8.433-8.74 26.47v59.5zm147.456 1.874q-15.015 0-26.892-6.09-11.653-6.091-18.152-18.507-6.499-12.65-6.499-32.092V94.257h34.96v65.825q0 15.695 6.274 23.19 6.5 7.263 18.152 7.263 8.068 0 14.343-3.514 6.274-3.748 9.86-11.244 3.585-7.73 3.585-19.209V94.257h34.96v126.028h-33.167v-34.67l6.05 10.073q-6.05 13.118-17.927 19.912-11.653 6.559-25.547 6.559z" fill="#e64500"/><path d="M798.628 222.159q-15.911 0-27.34-7.028-11.43-7.027-17.48-21.317-6.05-14.523-6.05-36.543 0-22.254 6.274-36.544 6.5-14.29 17.928-21.317 11.43-7.027 26.668-7.027 17.031 0 30.477 7.964 13.67 7.965 21.513 22.489 8.068 14.523 8.068 34.435 0 19.677-8.068 34.2-7.843 14.524-21.513 22.723-13.446 7.965-30.477 7.965zm-71.263-1.874V46.469h34.959v73.321l-2.241 37.246.672 37.481v25.768zm65.212-28.11q8.74 0 15.463-4.217 6.947-4.217 10.98-11.947 4.258-7.965 4.258-18.74 0-11.01-4.257-18.74-4.034-7.73-10.981-11.947-6.723-4.217-15.463-4.217-8.74 0-15.687 4.217-6.947 4.216-10.98 11.946-4.034 7.73-4.034 18.74 0 10.776 4.034 18.741 4.033 7.73 10.98 11.947 6.947 4.216 15.687 4.216zm88.838 28.11V94.257h34.96v126.028zm17.48-143.597q-9.636 0-15.687-5.857-6.05-5.856-6.05-14.523 0-8.668 6.05-14.524t15.687-5.856q9.636 0 15.687 5.622 6.05 5.387 6.05 14.055 0 9.136-6.05 15.226-5.827 5.857-15.687 5.857zM997.593 222.159q-21.289 0-33.166-11.244-11.877-11.479-11.877-33.967V66.38h34.959v110.1q0 7.964 4.034 12.415 4.033 4.216 10.98 4.216 8.292 0 14.119-4.685l9.412 25.768q-5.379 3.983-12.998 6.09-7.395 1.875-15.463 1.875zm-63.643-99.792v-28.11h83.588v28.11z" letter-spacing="-.59" fill="#12afcc"/></g></svg>